#!OML:ASF F:\VICON\USERDATA\INSTALL\rory3\rory3.ASF
:FULLY-SPECIFIED
:DEGREES
131
root 4.70707 17.5735 1.87631 17.9474 1.90883 -1.94617
lowerback -8.01312 1.15698 13.9823
upperback -12.0158 1.23172 0.423495
thorax -8.37111 -0.564328 -7.33098
lowerneck -3.73843 17.1017 10.6202
upperneck 12.0178 21.6351 4.93416
head 4.82551 11.3443 1.21323
rclavicle 5.1684e-015 -9.54166e-015
rhumerus 2.71942 -25.3476 23.6931
rradius 117.162
rwrist -67.4727
rhand -2.69196 -43.1427
rfingers 7.12502
rthumb 23.0096 -71.7893
lclavicle 5.1684e-015 -9.54166e-015
lhumerus 34.8758 34.168 -8.83489
lradius 30.3346
lwrist 33.1857
lhand -24.2327 -19.993
lfingers 7.12502
lthumb 2.25262 9.97484
rfemur -7.16279 9.13541 -2.79029
rtibia 19.9879
rfoot 22.4301 -14.6093
rtoes -20.8712
lfemur -16.7588 1.56576 -28.8009
ltibia 14.6115
lfoot -13.8118 6.68891
ltoes 8.05704
132
root 4.70584 17.5726 1.85078 17.8855 1.87501 -1.94331
lowerback -7.74969 1.13158 13.9226
upperback -12.0457 1.24615 0.42161
thorax -8.55162 -0.566029 -7.30309
lowerneck -3.65588 16.9769 10.6459
upperneck 12.1891 21.466 4.9799
head 4.86119 11.2709 1.21284
rclavicle 1.2921e-014 -1.43125e-014
rhumerus 2.78469 -25.2726 23.5101
rradius 117.099
rwrist -67.3854
rhand -2.0544 -43.0658
rfingers 7.12502
rthumb 23.6212 -71.6348
lclavicle 1.2921e-014 -1.43125e-014
lhumerus 34.8913 34.0614 -8.85661
lradius 30.4358
lwrist 33.0225
lhand -24.2565 -19.8163
lfingers 7.12502
lthumb 2.22961 10.1518
rfemur -7.34504 9.10681 -2.79992
rtibia 20.2262
rfoot 22.3841 -14.7185
rtoes -20.5498
lfemur -16.8098 1.47572 -28.7847
ltibia 14.6027
lfoot -13.6482 6.81758
ltoes 7.79676
133
root 4.71157 17.5747 1.83288 17.8452 1.86129 -2.10472
lowerback -7.62362 1.13327 14.1345
upperback -12.1253 1.27387 0.451826
thorax -8.72089 -0.584834 -7.389
lowerneck -3.01926 16.8377 10.8294
upperneck 12.1074 21.3647 4.86238
head 4.76535 11.2197 1.0899
rclavicle -1.19271e-014 1.59028e-014
rhumerus 3.00397 -25.0064 23.2141
rradius 117.067
rwrist -67.2421
rhand -2.16374 -43.118
rfingers 7.12502
rthumb 23.5163 -71.7005
lclavicle -1.19271e-014 1.59028e-014
lhumerus 34.9807 33.9774 -8.7397
lradius 30.5037
lwrist 32.7039
lhand -23.7626 -19.7226
lfingers 7.12502
lthumb 2.70664 10.24
rfemur -7.50701 8.99397 -2.65252
rtibia 20.3945
rfoot 22.5763 -14.3031
rtoes -20.9851
lfemur -16.8035 1.52119 -28.6487
ltibia 14.6159
lfoot -13.6519 6.83703
ltoes 7.53177
134
root 4.71245 17.5779 1.82683 17.7921 1.76968 -2.3262
lowerback -7.62655 1.17925 14.2879
upperback -12.0809 1.33073 0.514272
thorax -8.66031 -0.559897 -7.40473
lowerneck -2.8363 16.7729 10.952
upperneck 12.2496 21.2938 4.8172
head 4.79826 11.1921 1.05176
rclavicle -4.17448e-015 1.19271e-014
rhumerus 3.14952 -24.909 22.9168
rradius 117.028
rwrist -67.1027
rhand -2.79736 -43.3091
rfingers 7.12502
rthumb 22.9084 -71.9682
lclavicle -4.17448e-015 1.19271e-014
lhumerus 35.3315 34.2319 -8.25898
lradius 30.4808
lwrist 32.3899
lhand -23.7313 -19.9953
lfingers 7.12502
lthumb 2.73682 9.96691
rfemur -7.60523 9.12597 -2.43648
rtibia 20.4744
rfoot 22.5225 -14.2305
rtoes -20.7603
lfemur -16.8532 1.64263 -28.4425
ltibia 14.7351
lfoot -13.6985 6.92145
ltoes 7.38631
135
root 4.70753 17.578 1.82267 17.7409 1.665 -2.30551
lowerback -7.71546 1.22112 14.124
upperback -11.9411 1.3621 0.516875
thorax -8.42984 -0.506658 -7.30913
lowerneck -3.44835 16.7611 10.7811
upperneck 12.9478 21.1483 5.17175
head 5.05713 11.1571 1.25478
rclavicle -3.67752e-015 2.3059e-014
rhumerus 3.07985 -24.9901 22.7599
rradius 117.02
rwrist -67.054
rhand -3.31109 -43.3991
rfingers 7.12502
rthumb 22.4154 -72.1185
lclavicle -3.67752e-015 2.3059e-014
lhumerus 35.6246 34.4367 -7.91311
lradius 30.4937
lwrist 32.4753
lhand -24.2172 -20.1074
lfingers 7.12502
lthumb 2.26759 9.86025
rfemur -7.6264 9.24322 -2.46066
rtibia 20.5101
rfoot 22.5183 -14.0543
rtoes -21.3462
lfemur -16.9789 1.69754 -28.4557
ltibia 14.9719
lfoot -13.8007 6.97421
ltoes 7.69056
136
root 4.70569 17.5794 1.81454 17.7779 1.56633 -2.23305
lowerback -7.84076 1.264 13.9361
upperback -11.8155 1.39087 0.514649
thorax -8.19614 -0.45401 -7.20468
lowerneck -4.08975 16.7133 10.4887
upperneck 13.5456 20.9706 5.47457
head 5.28218 11.0959 1.45055
rclavicle 5.06901e-015 -3.97569e-015
rhumerus 2.98904 -25.1403 22.6489
rradius 117.031
rwrist -66.9091
rhand -3.15457 -43.4388
rfingers 7.12502
rthumb 22.5656 -72.14
lclavicle 5.06901e-015 -3.97569e-015
lhumerus 35.4955 34.3318 -8.11598
lradius 30.6334
lwrist 32.8981
lhand -24.2435 -20.0115
lfingers 7.12502
lthumb 2.24217 9.95643
rfemur -7.80538 9.17378 -2.584
rtibia 20.6193
rfoot 22.6349 -13.6528
rtoes -22.2039
lfemur -17.1332 1.72718 -28.5482
ltibia 15.1606
lfoot -13.9469 6.97555
ltoes 8.30203
